<svg width="24" height="29" viewBox="0 0 24 29" fill="none" xmlns="http://www.w3.org/2000/svg">
<path d="M6.48737 6.59442C6.46356 7.3538 6.58176 8.11069 6.83522 8.82187C7.08869 9.53306 7.47245 10.1846 7.96461 10.7393C8.45676 11.2941 9.04767 11.7411 9.70359 12.0549C10.3595 12.3687 11.0676 12.5432 11.7874 12.5683C12.5072 12.5934 13.2247 12.4687 13.8989 12.2013C14.573 11.9339 15.1906 11.5291 15.7164 11.0099C16.2423 10.4907 16.666 9.86731 16.9635 9.17535C17.261 8.48339 17.4263 7.7364 17.4501 6.97702C17.4739 6.21765 17.3557 5.46076 17.1023 4.74957C16.8488 4.03839 16.4651 3.38683 15.9729 2.83211C15.4807 2.27738 14.8898 1.83035 14.2339 1.51654C13.578 1.20273 12.8699 1.02829 12.1501 1.00316C11.4303 0.978042 10.7128 1.10274 10.0387 1.37013C9.36451 1.63752 8.74689 2.04237 8.22106 2.56157C7.69523 3.08076 7.27148 3.70414 6.97401 4.39609C6.67655 5.08805 6.51119 5.83504 6.48737 6.59442Z" stroke="white" stroke-width="2" stroke-linecap="round" stroke-linejoin="round"/>
<path d="M22.9375 28C22.0389 25.7166 20.5172 23.7649 18.5648 22.3918C16.6123 21.0186 14.3169 20.2857 11.9688 20.2857C9.6206 20.2857 7.32517 21.0186 5.37275 22.3918C3.42033 23.7649 1.8986 25.7166 1 28" stroke="white" stroke-width="2" stroke-linecap="round" stroke-linejoin="round"/>
</svg>
